<?xml version="1.0" encoding="UTF-8" standalone="no"?><!-- Generator: Gravit.io --><svg xmlns="http://www.w3.org/2000/svg" xmlns:xlink="http://www.w3.org/1999/xlink" style="isolation:isolate" viewBox="0 0 2000 1000" width="300pt" height="150pt"><g style="isolation:isolate"><g><path d=" M 500.271 622.589 L 313.455 762.265 L 313.455 15 L 500.271 622.589 Z " fill="rgb(17,132,176)"/><path d=" M 119.524 640.922 L 297.611 772.741 L 14.767 984 L 119.524 640.922 Z " fill="rgb(42,69,91)"/><path d=" M 328.296 772.741 L 506.382 640.922 L 612.012 984 L 328.296 772.741 Z " fill="rgb(17,132,176)"/><path d=" M 313.455 15 L 313.455 762.265 L 126.639 622.589 L 313.455 15 Z " fill="rgb(42,69,91)"/></g></g><g style="isolation:isolate"><path d=" M 777.077 622.539 L 777.077 622.539 Q 777.077 618.962 780.68 618.962 L 780.68 618.962 L 799.052 618.962 L 799.052 618.962 Q 802.654 618.962 802.654 622.539 L 802.654 622.539 L 802.654 865.77 L 802.654 865.77 Q 802.654 869.347 799.052 869.347 L 799.052 869.347 L 781.04 869.347 L 781.04 869.347 Q 778.518 869.347 776.717 866.843 L 776.717 866.843 L 653.879 668.324 L 653.879 668.324 Q 653.519 667.25 652.798 667.429 L 652.798 667.429 L 652.798 667.429 Q 652.078 667.608 652.078 668.681 L 652.078 668.681 L 652.438 865.77 L 652.438 865.77 Q 652.438 869.347 648.836 869.347 L 648.836 869.347 L 630.464 869.347 L 630.464 869.347 Q 626.862 869.347 626.862 865.77 L 626.862 865.77 L 626.862 622.539 L 626.862 622.539 Q 626.862 618.962 630.464 618.962 L 630.464 618.962 L 648.475 618.962 L 648.475 618.962 Q 650.997 618.962 652.798 621.466 L 652.798 621.466 L 775.637 819.985 L 775.637 819.985 Q 775.997 821.058 776.717 820.88 L 776.717 820.88 L 776.717 820.88 Q 777.438 820.701 777.438 819.628 L 777.438 819.628 L 777.077 622.539 L 777.077 622.539 Z  M 934.858 872.209 L 934.858 872.209 Q 908.922 872.209 890.19 858.974 L 890.19 858.974 L 890.19 858.974 Q 871.458 845.739 864.253 822.489 L 864.253 822.489 L 864.253 822.489 Q 859.21 806.035 859.21 778.493 L 859.21 778.493 L 859.21 778.493 Q 859.21 750.951 864.253 734.854 L 864.253 734.854 L 864.253 734.854 Q 871.097 711.962 889.829 698.727 L 889.829 698.727 L 889.829 698.727 Q 908.561 685.493 935.218 685.493 L 935.218 685.493 L 935.218 685.493 Q 960.795 685.493 979.347 698.727 L 979.347 698.727 L 979.347 698.727 Q 997.898 711.962 1004.743 734.497 L 1004.743 734.497 L 1004.743 734.497 Q 1009.786 749.878 1009.786 778.493 L 1009.786 778.493 L 1009.786 778.493 Q 1009.786 807.466 1004.743 822.489 L 1004.743 822.489 L 1004.743 822.489 Q 997.898 845.739 979.347 858.974 L 979.347 858.974 L 979.347 858.974 Q 960.795 872.209 934.858 872.209 L 934.858 872.209 L 934.858 872.209 Z  M 934.858 850.032 L 934.858 850.032 Q 952.149 850.032 964.397 840.553 L 964.397 840.553 L 964.397 840.553 Q 976.645 831.074 980.968 814.978 L 980.968 814.978 L 980.968 814.978 Q 984.21 802.101 984.21 778.851 L 984.21 778.851 L 984.21 778.851 Q 984.21 755.243 981.328 742.724 L 981.328 742.724 L 981.328 742.724 Q 977.005 726.627 964.577 717.149 L 964.577 717.149 L 964.577 717.149 Q 952.149 707.67 934.498 707.67 L 934.498 707.67 L 934.498 707.67 Q 916.847 707.67 904.599 717.149 L 904.599 717.149 L 904.599 717.149 Q 892.351 726.627 888.028 742.724 L 888.028 742.724 L 888.028 742.724 Q 885.146 755.243 885.146 778.851 L 885.146 778.851 L 885.146 778.851 Q 885.146 802.458 888.028 814.978 L 888.028 814.978 L 888.028 814.978 Q 891.991 831.074 904.419 840.553 L 904.419 840.553 L 904.419 840.553 Q 916.847 850.032 934.858 850.032 L 934.858 850.032 L 934.858 850.032 Z  M 1135.146 686.566 L 1135.146 686.566 Q 1147.034 686.566 1155.679 691.216 L 1155.679 691.216 L 1155.679 691.216 Q 1158.561 692.647 1157.84 695.866 L 1157.84 695.866 L 1153.878 713.393 L 1153.878 713.393 Q 1152.797 716.97 1149.195 715.539 L 1149.195 715.539 L 1149.195 715.539 Q 1143.071 713.035 1135.146 713.035 L 1135.146 713.035 L 1130.463 713.393 L 1130.463 713.393 Q 1111.731 714.108 1099.483 727.164 L 1099.483 727.164 L 1099.483 727.164 Q 1087.235 740.22 1087.235 760.251 L 1087.235 760.251 L 1087.235 865.77 L 1087.235 865.77 Q 1087.235 869.347 1083.633 869.347 L 1083.633 869.347 L 1065.261 869.347 L 1065.261 869.347 Q 1061.659 869.347 1061.659 865.77 L 1061.659 865.77 L 1061.659 691.931 L 1061.659 691.931 Q 1061.659 688.354 1065.261 688.354 L 1065.261 688.354 L 1083.633 688.354 L 1083.633 688.354 Q 1087.235 688.354 1087.235 691.931 L 1087.235 691.931 L 1087.235 713.751 L 1087.235 713.751 Q 1087.235 714.824 1087.776 715.002 L 1087.776 715.002 L 1087.776 715.002 Q 1088.316 715.181 1088.676 714.466 L 1088.676 714.466 L 1088.676 714.466 Q 1096.241 701.231 1107.949 693.899 L 1107.949 693.899 L 1107.949 693.899 Q 1119.656 686.566 1135.146 686.566 L 1135.146 686.566 L 1135.146 686.566 Z  M 1304.094 622.539 L 1304.094 622.539 Q 1304.094 618.962 1307.696 618.962 L 1307.696 618.962 L 1326.068 618.962 L 1326.068 618.962 Q 1329.67 618.962 1329.67 622.539 L 1329.67 622.539 L 1329.67 865.77 L 1329.67 865.77 Q 1329.67 869.347 1326.068 869.347 L 1326.068 869.347 L 1307.696 869.347 L 1307.696 869.347 Q 1304.094 869.347 1304.094 865.77 L 1304.094 865.77 L 1304.094 850.747 L 1304.094 850.747 Q 1304.094 850.032 1303.553 849.853 L 1303.553 849.853 L 1303.553 849.853 Q 1303.013 849.674 1302.293 850.389 L 1302.293 850.389 L 1302.293 850.389 Q 1294.368 860.762 1282.66 866.485 L 1282.66 866.485 L 1282.66 866.485 Q 1270.953 872.209 1256.543 872.209 L 1256.543 872.209 L 1256.543 872.209 Q 1231.327 872.209 1214.216 859.332 L 1214.216 859.332 L 1214.216 859.332 Q 1197.106 846.455 1190.621 824.278 L 1190.621 824.278 L 1190.621 824.278 Q 1185.578 808.182 1185.578 778.851 L 1185.578 778.851 L 1185.578 778.851 Q 1185.578 749.162 1189.901 734.497 L 1189.901 734.497 L 1189.901 734.497 Q 1196.385 711.604 1213.676 698.549 L 1213.676 698.549 L 1213.676 698.549 Q 1230.967 685.493 1256.543 685.493 L 1256.543 685.493 L 1256.543 685.493 Q 1270.592 685.493 1282.48 691.037 L 1282.48 691.037 L 1282.48 691.037 Q 1294.368 696.581 1302.293 706.954 L 1302.293 706.954 L 1302.293 706.954 Q 1303.013 707.67 1303.553 707.491 L 1303.553 707.491 L 1303.553 707.491 Q 1304.094 707.312 1304.094 706.597 L 1304.094 706.597 L 1304.094 622.539 L 1304.094 622.539 Z  M 1297.61 822.489 L 1297.61 822.489 Q 1300.852 815.335 1302.293 805.678 L 1302.293 805.678 L 1302.293 805.678 Q 1303.734 796.02 1303.734 778.851 L 1303.734 778.851 L 1303.734 778.851 Q 1303.734 761.681 1302.293 751.845 L 1302.293 751.845 L 1302.293 751.845 Q 1300.852 742.008 1297.249 734.497 L 1297.249 734.497 L 1297.249 734.497 Q 1292.927 722.335 1283.02 715.002 L 1283.02 715.002 L 1283.02 715.002 Q 1273.114 707.67 1259.425 707.67 L 1259.425 707.67 L 1259.425 707.67 Q 1245.016 707.67 1234.569 714.824 L 1234.569 714.824 L 1234.569 714.824 Q 1224.123 721.977 1219.44 733.781 L 1219.44 733.781 L 1219.44 733.781 Q 1215.117 741.651 1213.136 751.487 L 1213.136 751.487 L 1213.136 751.487 Q 1211.155 761.324 1211.155 778.851 L 1211.155 778.851 L 1211.155 778.851 Q 1211.155 795.662 1212.595 805.141 L 1212.595 805.141 L 1212.595 805.141 Q 1214.036 814.62 1217.639 822.132 L 1217.639 822.132 L 1217.639 822.132 Q 1221.961 835.008 1232.948 842.52 L 1232.948 842.52 L 1232.948 842.52 Q 1243.935 850.032 1259.065 850.032 L 1259.065 850.032 L 1259.065 850.032 Q 1273.474 850.032 1283.2 842.52 L 1283.2 842.52 L 1283.2 842.52 Q 1292.927 835.008 1297.61 822.489 L 1297.61 822.489 L 1297.61 822.489 Z  M 1555.895 637.562 L 1555.895 637.562 Q 1555.895 641.139 1552.292 641.139 L 1552.292 641.139 L 1419.728 641.139 L 1419.728 641.139 Q 1418.287 641.139 1418.287 642.57 L 1418.287 642.57 L 1418.287 730.92 L 1418.287 730.92 Q 1418.287 732.351 1419.728 732.351 L 1419.728 732.351 L 1512.667 732.351 L 1512.667 732.351 Q 1516.269 732.351 1516.269 735.928 L 1516.269 735.928 L 1516.269 750.951 L 1516.269 750.951 Q 1516.269 754.528 1512.667 754.528 L 1512.667 754.528 L 1419.728 754.528 L 1419.728 754.528 Q 1418.287 754.528 1418.287 755.958 L 1418.287 755.958 L 1418.287 845.739 L 1418.287 845.739 Q 1418.287 847.17 1419.728 847.17 L 1419.728 847.17 L 1552.292 847.17 L 1552.292 847.17 Q 1555.895 847.17 1555.895 850.747 L 1555.895 850.747 L 1555.895 865.77 L 1555.895 865.77 Q 1555.895 869.347 1552.292 869.347 L 1552.292 869.347 L 1396.313 869.347 L 1396.313 869.347 Q 1392.71 869.347 1392.71 865.77 L 1392.71 865.77 L 1392.71 622.539 L 1392.71 622.539 Q 1392.71 618.962 1396.313 618.962 L 1396.313 618.962 L 1552.292 618.962 L 1552.292 618.962 Q 1555.895 618.962 1555.895 622.539 L 1555.895 622.539 L 1555.895 637.562 L 1555.895 637.562 Z  M 1683.416 872.209 L 1683.416 872.209 Q 1642.71 872.209 1619.115 853.966 L 1619.115 853.966 L 1619.115 853.966 Q 1595.52 835.724 1595.52 805.32 L 1595.52 805.32 L 1595.52 794.231 L 1595.52 794.231 Q 1595.52 790.655 1599.122 790.655 L 1599.122 790.655 L 1616.773 790.655 L 1616.773 790.655 Q 1620.376 790.655 1620.376 794.231 L 1620.376 794.231 L 1620.376 803.889 L 1620.376 803.889 Q 1620.376 824.635 1637.667 837.334 L 1637.667 837.334 L 1637.667 837.334 Q 1654.958 850.032 1685.577 850.032 L 1685.577 850.032 L 1685.577 850.032 Q 1713.315 850.032 1727.724 838.407 L 1727.724 838.407 L 1727.724 838.407 Q 1742.133 826.782 1742.133 807.466 L 1742.133 807.466 L 1742.133 807.466 Q 1742.133 794.947 1735.469 786.005 L 1735.469 786.005 L 1735.469 786.005 Q 1728.805 777.062 1714.936 769.193 L 1714.936 769.193 L 1714.936 769.193 Q 1701.067 761.324 1675.851 750.951 L 1675.851 750.951 L 1675.851 750.951 Q 1648.834 740.22 1633.884 732.172 L 1633.884 732.172 L 1633.884 732.172 Q 1618.935 724.124 1609.749 711.426 L 1609.749 711.426 L 1609.749 711.426 Q 1600.563 698.727 1600.563 679.412 L 1600.563 679.412 L 1600.563 679.412 Q 1600.563 649.366 1621.636 632.733 L 1621.636 632.733 L 1621.636 632.733 Q 1642.71 616.1 1679.453 616.1 L 1679.453 616.1 L 1679.453 616.1 Q 1719.439 616.1 1742.494 634.7 L 1742.494 634.7 L 1742.494 634.7 Q 1765.548 653.3 1765.548 684.062 L 1765.548 684.062 L 1765.548 691.931 L 1765.548 691.931 Q 1765.548 695.508 1761.946 695.508 L 1761.946 695.508 L 1743.935 695.508 L 1743.935 695.508 Q 1740.332 695.508 1740.332 691.931 L 1740.332 691.931 L 1740.332 685.493 L 1740.332 685.493 Q 1740.332 664.747 1723.942 651.512 L 1723.942 651.512 L 1723.942 651.512 Q 1707.551 638.277 1678.373 638.277 L 1678.373 638.277 L 1678.373 638.277 Q 1652.796 638.277 1639.108 648.65 L 1639.108 648.65 L 1639.108 648.65 Q 1625.419 659.024 1625.419 678.697 L 1625.419 678.697 L 1625.419 678.697 Q 1625.419 691.574 1632.083 699.979 L 1632.083 699.979 L 1632.083 699.979 Q 1638.747 708.385 1651.175 714.645 L 1651.175 714.645 L 1651.175 714.645 Q 1663.603 720.904 1689.54 730.92 L 1689.54 730.92 L 1689.54 730.92 Q 1715.837 741.651 1731.867 750.951 L 1731.867 750.951 L 1731.867 750.951 Q 1747.897 760.251 1757.803 773.664 L 1757.803 773.664 L 1757.803 773.664 Q 1767.71 787.078 1767.71 806.393 L 1767.71 806.393 L 1767.71 806.393 Q 1767.71 836.439 1745.375 854.324 L 1745.375 854.324 L 1745.375 854.324 Q 1723.041 872.209 1683.416 872.209 L 1683.416 872.209 L 1683.416 872.209 Z  M 1897.753 872.209 L 1897.753 872.209 Q 1872.537 872.209 1853.444 862.372 L 1853.444 862.372 L 1853.444 862.372 Q 1834.352 852.535 1823.725 834.651 L 1823.725 834.651 L 1823.725 834.651 Q 1813.099 816.766 1813.099 793.516 L 1813.099 793.516 L 1813.099 694.793 L 1813.099 694.793 Q 1813.099 671.543 1823.725 653.658 L 1823.725 653.658 L 1823.725 653.658 Q 1834.352 635.773 1853.444 625.937 L 1853.444 625.937 L 1853.444 625.937 Q 1872.537 616.1 1897.753 616.1 L 1897.753 616.1 L 1897.753 616.1 Q 1922.609 616.1 1941.881 625.758 L 1941.881 625.758 L 1941.881 625.758 Q 1961.153 635.416 1971.6 652.764 L 1971.6 652.764 L 1971.6 652.764 Q 1982.047 670.112 1982.047 691.931 L 1982.047 691.931 L 1982.047 696.581 L 1982.047 696.581 Q 1982.047 700.158 1978.444 700.158 L 1978.444 700.158 L 1960.072 700.158 L 1960.072 700.158 Q 1956.47 700.158 1956.47 696.581 L 1956.47 696.581 L 1956.47 692.289 L 1956.47 692.289 Q 1956.47 668.324 1940.44 653.3 L 1940.44 653.3 L 1940.44 653.3 Q 1924.41 638.277 1897.753 638.277 L 1897.753 638.277 L 1897.753 638.277 Q 1871.096 638.277 1854.885 653.658 L 1854.885 653.658 L 1854.885 653.658 Q 1838.675 669.039 1838.675 694.077 L 1838.675 694.077 L 1838.675 794.231 L 1838.675 794.231 Q 1838.675 819.27 1855.246 834.651 L 1855.246 834.651 L 1855.246 834.651 Q 1871.816 850.032 1898.833 850.032 L 1898.833 850.032 L 1898.833 850.032 Q 1925.13 850.032 1940.8 835.724 L 1940.8 835.724 L 1940.8 835.724 Q 1956.47 821.416 1956.47 797.451 L 1956.47 797.451 L 1956.47 764.901 L 1956.47 764.901 Q 1956.47 763.47 1955.029 763.47 L 1955.029 763.47 L 1902.075 763.47 L 1902.075 763.47 Q 1898.473 763.47 1898.473 759.893 L 1898.473 759.893 L 1898.473 744.87 L 1898.473 744.87 Q 1898.473 741.293 1902.075 741.293 L 1902.075 741.293 L 1978.444 741.293 L 1978.444 741.293 Q 1982.047 741.293 1982.047 744.87 L 1982.047 744.87 L 1982.047 791.012 L 1982.047 791.012 Q 1982.047 829.285 1959.172 850.747 L 1959.172 850.747 L 1959.172 850.747 Q 1936.297 872.209 1897.753 872.209 L 1897.753 872.209 L 1897.753 872.209 Z " fill="rgb(42,69,91)"/><path d=" M 1765.048 924.395 L 1765.048 924.395 Q 1765.048 923.534 1765.912 923.534 L 1765.912 923.534 L 1770.32 923.534 L 1770.32 923.534 Q 1771.184 923.534 1771.184 924.395 L 1771.184 924.395 L 1771.184 982.94 L 1771.184 982.94 Q 1771.184 983.801 1770.32 983.801 L 1770.32 983.801 L 1765.999 983.801 L 1765.999 983.801 Q 1765.394 983.801 1764.962 983.199 L 1764.962 983.199 L 1735.493 935.415 L 1735.493 935.415 Q 1735.406 935.157 1735.233 935.2 L 1735.233 935.2 L 1735.233 935.2 Q 1735.061 935.243 1735.061 935.501 L 1735.061 935.501 L 1735.147 982.94 L 1735.147 982.94 Q 1735.147 983.801 1734.283 983.801 L 1734.283 983.801 L 1729.875 983.801 L 1729.875 983.801 Q 1729.011 983.801 1729.011 982.94 L 1729.011 982.94 L 1729.011 924.395 L 1729.011 924.395 Q 1729.011 923.534 1729.875 923.534 L 1729.875 923.534 L 1734.196 923.534 L 1734.196 923.534 Q 1734.801 923.534 1735.233 924.137 L 1735.233 924.137 L 1764.703 971.92 L 1764.703 971.92 Q 1764.789 972.178 1764.962 972.135 L 1764.962 972.135 L 1764.962 972.135 Q 1765.135 972.092 1765.135 971.834 L 1765.135 971.834 L 1765.048 924.395 L 1765.048 924.395 Z  M 1806.098 984.49 L 1806.098 984.49 Q 1799.962 984.49 1795.295 981.993 L 1795.295 981.993 L 1795.295 981.993 Q 1790.629 979.496 1788.079 974.976 L 1788.079 974.976 L 1788.079 974.976 Q 1785.53 970.456 1785.53 964.516 L 1785.53 964.516 L 1785.53 942.82 L 1785.53 942.82 Q 1785.53 936.879 1788.079 932.359 L 1788.079 932.359 L 1788.079 932.359 Q 1790.629 927.839 1795.295 925.342 L 1795.295 925.342 L 1795.295 925.342 Q 1799.962 922.845 1806.098 922.845 L 1806.098 922.845 L 1806.098 922.845 Q 1812.233 922.845 1816.943 925.342 L 1816.943 925.342 L 1816.943 925.342 Q 1821.653 927.839 1824.203 932.359 L 1824.203 932.359 L 1824.203 932.359 Q 1826.752 936.879 1826.752 942.82 L 1826.752 942.82 L 1826.752 964.516 L 1826.752 964.516 Q 1826.752 970.456 1824.203 974.976 L 1824.203 974.976 L 1824.203 974.976 Q 1821.653 979.496 1816.943 981.993 L 1816.943 981.993 L 1816.943 981.993 Q 1812.233 984.49 1806.098 984.49 L 1806.098 984.49 L 1806.098 984.49 Z  M 1806.098 979.238 L 1806.098 979.238 Q 1812.666 979.238 1816.641 975.278 L 1816.641 975.278 L 1816.641 975.278 Q 1820.616 971.317 1820.616 964.774 L 1820.616 964.774 L 1820.616 942.733 L 1820.616 942.733 Q 1820.616 936.19 1816.641 932.187 L 1816.641 932.187 L 1816.641 932.187 Q 1812.666 928.183 1806.098 928.183 L 1806.098 928.183 L 1806.098 928.183 Q 1799.616 928.183 1795.641 932.187 L 1795.641 932.187 L 1795.641 932.187 Q 1791.666 936.19 1791.666 942.733 L 1791.666 942.733 L 1791.666 964.774 L 1791.666 964.774 Q 1791.666 971.317 1795.641 975.278 L 1795.641 975.278 L 1795.641 975.278 Q 1799.616 979.238 1806.098 979.238 L 1806.098 979.238 L 1806.098 979.238 Z  M 1876.443 983.801 L 1876.443 983.801 Q 1875.665 983.801 1875.406 983.199 L 1875.406 983.199 L 1862.703 956.509 L 1862.703 956.509 Q 1862.616 956.251 1862.357 956.251 L 1862.357 956.251 L 1847.666 956.251 L 1847.666 956.251 Q 1847.32 956.251 1847.32 956.595 L 1847.32 956.595 L 1847.32 982.94 L 1847.32 982.94 Q 1847.32 983.801 1846.456 983.801 L 1846.456 983.801 L 1842.048 983.801 L 1842.048 983.801 Q 1841.184 983.801 1841.184 982.94 L 1841.184 982.94 L 1841.184 924.395 L 1841.184 924.395 Q 1841.184 923.534 1842.048 923.534 L 1842.048 923.534 L 1864.431 923.534 L 1864.431 923.534 Q 1871.863 923.534 1876.443 928.14 L 1876.443 928.14 L 1876.443 928.14 Q 1881.024 932.746 1881.024 940.151 L 1881.024 940.151 L 1881.024 940.151 Q 1881.024 946.177 1877.74 950.396 L 1877.74 950.396 L 1877.74 950.396 Q 1874.456 954.615 1868.838 955.82 L 1868.838 955.82 L 1868.838 955.82 Q 1868.493 955.992 1868.665 956.251 L 1868.665 956.251 L 1881.628 982.768 L 1881.628 982.768 Q 1881.715 982.94 1881.715 983.199 L 1881.715 983.199 L 1881.715 983.199 Q 1881.715 983.801 1881.024 983.801 L 1881.024 983.801 L 1876.443 983.801 L 1876.443 983.801 Z  M 1847.666 928.872 L 1847.666 928.872 Q 1847.32 928.872 1847.32 929.216 L 1847.32 929.216 L 1847.32 950.999 L 1847.32 950.999 Q 1847.32 951.343 1847.666 951.343 L 1847.666 951.343 L 1863.74 951.343 L 1863.74 951.343 Q 1868.752 951.343 1871.863 948.244 L 1871.863 948.244 L 1871.863 948.244 Q 1874.974 945.144 1874.974 940.151 L 1874.974 940.151 L 1874.974 940.151 Q 1874.974 935.157 1871.863 932.014 L 1871.863 932.014 L 1871.863 932.014 Q 1868.752 928.872 1863.74 928.872 L 1863.74 928.872 L 1847.666 928.872 L 1847.666 928.872 Z  M 1930.456 923.534 L 1930.456 923.534 Q 1931.32 923.534 1931.32 924.395 L 1931.32 924.395 L 1931.32 928.097 L 1931.32 928.097 Q 1931.32 928.958 1930.456 928.958 L 1930.456 928.958 L 1913.517 928.958 L 1913.517 928.958 Q 1913.172 928.958 1913.172 929.302 L 1913.172 929.302 L 1913.172 982.94 L 1913.172 982.94 Q 1913.172 983.801 1912.307 983.801 L 1912.307 983.801 L 1907.9 983.801 L 1907.9 983.801 Q 1907.036 983.801 1907.036 982.94 L 1907.036 982.94 L 1907.036 929.302 L 1907.036 929.302 Q 1907.036 928.958 1906.69 928.958 L 1906.69 928.958 L 1890.443 928.958 L 1890.443 928.958 Q 1889.579 928.958 1889.579 928.097 L 1889.579 928.097 L 1889.579 924.395 L 1889.579 924.395 Q 1889.579 923.534 1890.443 923.534 L 1890.443 923.534 L 1930.456 923.534 L 1930.456 923.534 Z  M 1977.554 924.395 L 1977.554 924.395 Q 1977.554 923.534 1978.419 923.534 L 1978.419 923.534 L 1982.826 923.534 L 1982.826 923.534 Q 1983.69 923.534 1983.69 924.395 L 1983.69 924.395 L 1983.69 982.94 L 1983.69 982.94 Q 1983.69 983.801 1982.826 983.801 L 1982.826 983.801 L 1978.419 983.801 L 1978.419 983.801 Q 1977.554 983.801 1977.554 982.94 L 1977.554 982.94 L 1977.554 956.509 L 1977.554 956.509 Q 1977.554 956.164 1977.209 956.164 L 1977.209 956.164 L 1949.641 956.164 L 1949.641 956.164 Q 1949.295 956.164 1949.295 956.509 L 1949.295 956.509 L 1949.295 982.94 L 1949.295 982.94 Q 1949.295 983.801 1948.431 983.801 L 1948.431 983.801 L 1944.023 983.801 L 1944.023 983.801 Q 1943.159 983.801 1943.159 982.94 L 1943.159 982.94 L 1943.159 924.395 L 1943.159 924.395 Q 1943.159 923.534 1944.023 923.534 L 1944.023 923.534 L 1948.431 923.534 L 1948.431 923.534 Q 1949.295 923.534 1949.295 924.395 L 1949.295 924.395 L 1949.295 950.482 L 1949.295 950.482 Q 1949.295 950.826 1949.641 950.826 L 1949.641 950.826 L 1977.209 950.826 L 1977.209 950.826 Q 1977.554 950.826 1977.554 950.482 L 1977.554 950.482 L 1977.554 924.395 L 1977.554 924.395 Z  M 1537.851 923.534 L 1537.851 923.534 Q 1538.715 923.534 1538.715 924.395 L 1538.715 924.395 L 1538.715 928.097 L 1538.715 928.097 Q 1538.715 928.958 1537.851 928.958 L 1537.851 928.958 L 1520.913 928.958 L 1520.913 928.958 Q 1520.567 928.958 1520.567 929.302 L 1520.567 929.302 L 1520.567 982.94 L 1520.567 982.94 Q 1520.567 983.801 1519.703 983.801 L 1519.703 983.801 L 1515.295 983.801 L 1515.295 983.801 Q 1514.431 983.801 1514.431 982.94 L 1514.431 982.94 L 1514.431 929.302 L 1514.431 929.302 Q 1514.431 928.958 1514.085 928.958 L 1514.085 928.958 L 1497.839 928.958 L 1497.839 928.958 Q 1496.974 928.958 1496.974 928.097 L 1496.974 928.097 L 1496.974 924.395 L 1496.974 924.395 Q 1496.974 923.534 1497.839 923.534 L 1497.839 923.534 L 1537.851 923.534 L 1537.851 923.534 Z  M 1585.814 983.801 L 1585.814 983.801 Q 1585.036 983.801 1584.777 983.199 L 1584.777 983.199 L 1572.073 956.509 L 1572.073 956.509 Q 1571.987 956.251 1571.727 956.251 L 1571.727 956.251 L 1557.036 956.251 L 1557.036 956.251 Q 1556.69 956.251 1556.69 956.595 L 1556.69 956.595 L 1556.69 982.94 L 1556.69 982.94 Q 1556.69 983.801 1555.826 983.801 L 1555.826 983.801 L 1551.419 983.801 L 1551.419 983.801 Q 1550.555 983.801 1550.555 982.94 L 1550.555 982.94 L 1550.555 924.395 L 1550.555 924.395 Q 1550.555 923.534 1551.419 923.534 L 1551.419 923.534 L 1573.801 923.534 L 1573.801 923.534 Q 1581.234 923.534 1585.814 928.14 L 1585.814 928.14 L 1585.814 928.14 Q 1590.394 932.746 1590.394 940.151 L 1590.394 940.151 L 1590.394 940.151 Q 1590.394 946.177 1587.11 950.396 L 1587.11 950.396 L 1587.11 950.396 Q 1583.826 954.615 1578.209 955.82 L 1578.209 955.82 L 1578.209 955.82 Q 1577.863 955.992 1578.036 956.251 L 1578.036 956.251 L 1590.999 982.768 L 1590.999 982.768 Q 1591.085 982.94 1591.085 983.199 L 1591.085 983.199 L 1591.085 983.199 Q 1591.085 983.801 1590.394 983.801 L 1590.394 983.801 L 1585.814 983.801 L 1585.814 983.801 Z  M 1557.036 928.872 L 1557.036 928.872 Q 1556.69 928.872 1556.69 929.216 L 1556.69 929.216 L 1556.69 950.999 L 1556.69 950.999 Q 1556.69 951.343 1557.036 951.343 L 1557.036 951.343 L 1573.11 951.343 L 1573.11 951.343 Q 1578.122 951.343 1581.234 948.244 L 1581.234 948.244 L 1581.234 948.244 Q 1584.345 945.144 1584.345 940.151 L 1584.345 940.151 L 1584.345 940.151 Q 1584.345 935.157 1581.234 932.014 L 1581.234 932.014 L 1581.234 932.014 Q 1578.122 928.872 1573.11 928.872 L 1573.11 928.872 L 1557.036 928.872 L 1557.036 928.872 Z  M 1623.32 984.49 L 1623.32 984.49 Q 1617.271 984.49 1612.604 982.079 L 1612.604 982.079 L 1612.604 982.079 Q 1607.937 979.669 1605.345 975.321 L 1605.345 975.321 L 1605.345 975.321 Q 1602.752 970.973 1602.752 965.205 L 1602.752 965.205 L 1602.752 924.395 L 1602.752 924.395 Q 1602.752 923.534 1603.616 923.534 L 1603.616 923.534 L 1608.024 923.534 L 1608.024 923.534 Q 1608.888 923.534 1608.888 924.395 L 1608.888 924.395 L 1608.888 965.377 L 1608.888 965.377 Q 1608.888 971.49 1612.863 975.321 L 1612.863 975.321 L 1612.863 975.321 Q 1616.839 979.152 1623.32 979.152 L 1623.32 979.152 L 1623.32 979.152 Q 1629.801 979.152 1633.777 975.321 L 1633.777 975.321 L 1633.777 975.321 Q 1637.752 971.49 1637.752 965.377 L 1637.752 965.377 L 1637.752 924.395 L 1637.752 924.395 Q 1637.752 923.534 1638.616 923.534 L 1638.616 923.534 L 1643.024 923.534 L 1643.024 923.534 Q 1643.888 923.534 1643.888 924.395 L 1643.888 924.395 L 1643.888 965.205 L 1643.888 965.205 Q 1643.888 970.973 1641.338 975.321 L 1641.338 975.321 L 1641.338 975.321 Q 1638.789 979.669 1634.122 982.079 L 1634.122 982.079 L 1634.122 982.079 Q 1629.456 984.49 1623.32 984.49 L 1623.32 984.49 L 1623.32 984.49 Z  M 1698.592 928.011 L 1698.592 928.011 Q 1698.592 928.872 1697.727 928.872 L 1697.727 928.872 L 1665.925 928.872 L 1665.925 928.872 Q 1665.579 928.872 1665.579 929.216 L 1665.579 929.216 L 1665.579 950.482 L 1665.579 950.482 Q 1665.579 950.826 1665.925 950.826 L 1665.925 950.826 L 1688.221 950.826 L 1688.221 950.826 Q 1689.085 950.826 1689.085 951.687 L 1689.085 951.687 L 1689.085 955.303 L 1689.085 955.303 Q 1689.085 956.164 1688.221 956.164 L 1688.221 956.164 L 1665.925 956.164 L 1665.925 956.164 Q 1665.579 956.164 1665.579 956.509 L 1665.579 956.509 L 1665.579 978.119 L 1665.579 978.119 Q 1665.579 978.463 1665.925 978.463 L 1665.925 978.463 L 1697.727 978.463 L 1697.727 978.463 Q 1698.592 978.463 1698.592 979.324 L 1698.592 979.324 L 1698.592 982.94 L 1698.592 982.94 Q 1698.592 983.801 1697.727 983.801 L 1697.727 983.801 L 1660.308 983.801 L 1660.308 983.801 Q 1659.443 983.801 1659.443 982.94 L 1659.443 982.94 L 1659.443 924.395 L 1659.443 924.395 Q 1659.443 923.534 1660.308 923.534 L 1660.308 923.534 L 1697.727 923.534 L 1697.727 923.534 Q 1698.592 923.534 1698.592 924.395 L 1698.592 924.395 L 1698.592 928.011 L 1698.592 928.011 Z  M 1288.876 983.715 L 1288.876 983.715 Q 1288.012 983.715 1288.012 982.854 L 1288.012 982.854 L 1288.012 957.37 L 1288.012 957.37 Q 1288.012 957.025 1287.925 956.939 L 1287.925 956.939 L 1269.95 924.567 L 1269.95 924.567 Q 1269.777 924.223 1269.777 924.051 L 1269.777 924.051 L 1269.777 924.051 Q 1269.777 923.534 1270.555 923.534 L 1270.555 923.534 L 1275.221 923.534 L 1275.221 923.534 Q 1275.999 923.534 1276.258 924.137 L 1276.258 924.137 L 1290.777 950.396 L 1290.777 950.396 Q 1290.863 950.482 1291.036 950.482 L 1291.036 950.482 L 1291.036 950.482 Q 1291.209 950.482 1291.296 950.396 L 1291.296 950.396 L 1305.9 924.137 L 1305.9 924.137 Q 1306.246 923.534 1306.937 923.534 L 1306.937 923.534 L 1311.604 923.534 L 1311.604 923.534 Q 1312.123 923.534 1312.295 923.835 L 1312.295 923.835 L 1312.295 923.835 Q 1312.468 924.137 1312.209 924.567 L 1312.209 924.567 L 1294.234 956.939 L 1294.234 956.939 Q 1294.147 957.025 1294.147 957.37 L 1294.147 957.37 L 1294.147 982.854 L 1294.147 982.854 Q 1294.147 983.715 1293.283 983.715 L 1293.283 983.715 L 1288.876 983.715 L 1288.876 983.715 Z  M 1340.123 984.49 L 1340.123 984.49 Q 1333.987 984.49 1329.32 981.993 L 1329.32 981.993 L 1329.32 981.993 Q 1324.654 979.496 1322.104 974.976 L 1322.104 974.976 L 1322.104 974.976 Q 1319.555 970.456 1319.555 964.516 L 1319.555 964.516 L 1319.555 942.82 L 1319.555 942.82 Q 1319.555 936.879 1322.104 932.359 L 1322.104 932.359 L 1322.104 932.359 Q 1324.654 927.839 1329.32 925.342 L 1329.32 925.342 L 1329.32 925.342 Q 1333.987 922.845 1340.123 922.845 L 1340.123 922.845 L 1340.123 922.845 Q 1346.258 922.845 1350.968 925.342 L 1350.968 925.342 L 1350.968 925.342 Q 1355.678 927.839 1358.228 932.359 L 1358.228 932.359 L 1358.228 932.359 Q 1360.777 936.879 1360.777 942.82 L 1360.777 942.82 L 1360.777 964.516 L 1360.777 964.516 Q 1360.777 970.456 1358.228 974.976 L 1358.228 974.976 L 1358.228 974.976 Q 1355.678 979.496 1350.968 981.993 L 1350.968 981.993 L 1350.968 981.993 Q 1346.258 984.49 1340.123 984.49 L 1340.123 984.49 L 1340.123 984.49 Z  M 1340.123 979.238 L 1340.123 979.238 Q 1346.691 979.238 1350.666 975.278 L 1350.666 975.278 L 1350.666 975.278 Q 1354.641 971.317 1354.641 964.774 L 1354.641 964.774 L 1354.641 942.733 L 1354.641 942.733 Q 1354.641 936.19 1350.666 932.187 L 1350.666 932.187 L 1350.666 932.187 Q 1346.691 928.183 1340.123 928.183 L 1340.123 928.183 L 1340.123 928.183 Q 1333.641 928.183 1329.666 932.187 L 1329.666 932.187 L 1329.666 932.187 Q 1325.691 936.19 1325.691 942.733 L 1325.691 942.733 L 1325.691 964.774 L 1325.691 964.774 Q 1325.691 971.317 1329.666 975.278 L 1329.666 975.278 L 1329.666 975.278 Q 1333.641 979.238 1340.123 979.238 L 1340.123 979.238 L 1340.123 979.238 Z  M 1395.086 984.49 L 1395.086 984.49 Q 1389.036 984.49 1384.37 982.079 L 1384.37 982.079 L 1384.37 982.079 Q 1379.703 979.669 1377.11 975.321 L 1377.11 975.321 L 1377.11 975.321 Q 1374.518 970.973 1374.518 965.205 L 1374.518 965.205 L 1374.518 924.395 L 1374.518 924.395 Q 1374.518 923.534 1375.382 923.534 L 1375.382 923.534 L 1379.789 923.534 L 1379.789 923.534 Q 1380.653 923.534 1380.653 924.395 L 1380.653 924.395 L 1380.653 965.377 L 1380.653 965.377 Q 1380.653 971.49 1384.629 975.321 L 1384.629 975.321 L 1384.629 975.321 Q 1388.604 979.152 1395.086 979.152 L 1395.086 979.152 L 1395.086 979.152 Q 1401.567 979.152 1405.542 975.321 L 1405.542 975.321 L 1405.542 975.321 Q 1409.518 971.49 1409.518 965.377 L 1409.518 965.377 L 1409.518 924.395 L 1409.518 924.395 Q 1409.518 923.534 1410.382 923.534 L 1410.382 923.534 L 1414.789 923.534 L 1414.789 923.534 Q 1415.653 923.534 1415.653 924.395 L 1415.653 924.395 L 1415.653 965.205 L 1415.653 965.205 Q 1415.653 970.973 1413.104 975.321 L 1413.104 975.321 L 1413.104 975.321 Q 1410.555 979.669 1405.888 982.079 L 1405.888 982.079 L 1405.888 982.079 Q 1401.221 984.49 1395.086 984.49 L 1395.086 984.49 L 1395.086 984.49 Z  M 1466.468 983.801 L 1466.468 983.801 Q 1465.69 983.801 1465.431 983.199 L 1465.431 983.199 L 1452.727 956.509 L 1452.727 956.509 Q 1452.641 956.251 1452.382 956.251 L 1452.382 956.251 L 1437.69 956.251 L 1437.69 956.251 Q 1437.345 956.251 1437.345 956.595 L 1437.345 956.595 L 1437.345 982.94 L 1437.345 982.94 Q 1437.345 983.801 1436.481 983.801 L 1436.481 983.801 L 1432.073 983.801 L 1432.073 983.801 Q 1431.209 983.801 1431.209 982.94 L 1431.209 982.94 L 1431.209 924.395 L 1431.209 924.395 Q 1431.209 923.534 1432.073 923.534 L 1432.073 923.534 L 1454.456 923.534 L 1454.456 923.534 Q 1461.888 923.534 1466.468 928.14 L 1466.468 928.14 L 1466.468 928.14 Q 1471.048 932.746 1471.048 940.151 L 1471.048 940.151 L 1471.048 940.151 Q 1471.048 946.177 1467.765 950.396 L 1467.765 950.396 L 1467.765 950.396 Q 1464.481 954.615 1458.863 955.82 L 1458.863 955.82 L 1458.863 955.82 Q 1458.518 955.992 1458.69 956.251 L 1458.69 956.251 L 1471.653 982.768 L 1471.653 982.768 Q 1471.74 982.94 1471.74 983.199 L 1471.74 983.199 L 1471.74 983.199 Q 1471.74 983.801 1471.048 983.801 L 1471.048 983.801 L 1466.468 983.801 L 1466.468 983.801 Z  M 1437.69 928.872 L 1437.69 928.872 Q 1437.345 928.872 1437.345 929.216 L 1437.345 929.216 L 1437.345 950.999 L 1437.345 950.999 Q 1437.345 951.343 1437.69 951.343 L 1437.69 951.343 L 1453.765 951.343 L 1453.765 951.343 Q 1458.777 951.343 1461.888 948.244 L 1461.888 948.244 L 1461.888 948.244 Q 1464.999 945.144 1464.999 940.151 L 1464.999 940.151 L 1464.999 940.151 Q 1464.999 935.157 1461.888 932.014 L 1461.888 932.014 L 1461.888 932.014 Q 1458.777 928.872 1453.765 928.872 L 1453.765 928.872 L 1437.69 928.872 L 1437.69 928.872 Z  M 1199.259 923.534 L 1199.259 923.534 Q 1200.123 923.534 1200.123 924.395 L 1200.123 924.395 L 1200.123 928.097 L 1200.123 928.097 Q 1200.123 928.958 1199.259 928.958 L 1199.259 928.958 L 1182.32 928.958 L 1182.32 928.958 Q 1181.975 928.958 1181.975 929.302 L 1181.975 929.302 L 1181.975 982.94 L 1181.975 982.94 Q 1181.975 983.801 1181.11 983.801 L 1181.11 983.801 L 1176.703 983.801 L 1176.703 983.801 Q 1175.839 983.801 1175.839 982.94 L 1175.839 982.94 L 1175.839 929.302 L 1175.839 929.302 Q 1175.839 928.958 1175.493 928.958 L 1175.493 928.958 L 1159.246 928.958 L 1159.246 928.958 Q 1158.382 928.958 1158.382 928.097 L 1158.382 928.097 L 1158.382 924.395 L 1158.382 924.395 Q 1158.382 923.534 1159.246 923.534 L 1159.246 923.534 L 1199.259 923.534 L 1199.259 923.534 Z  M 1226.481 984.49 L 1226.481 984.49 Q 1220.345 984.49 1215.678 981.993 L 1215.678 981.993 L 1215.678 981.993 Q 1211.012 979.496 1208.462 974.976 L 1208.462 974.976 L 1208.462 974.976 Q 1205.913 970.456 1205.913 964.516 L 1205.913 964.516 L 1205.913 942.82 L 1205.913 942.82 Q 1205.913 936.879 1208.462 932.359 L 1208.462 932.359 L 1208.462 932.359 Q 1211.012 927.839 1215.678 925.342 L 1215.678 925.342 L 1215.678 925.342 Q 1220.345 922.845 1226.481 922.845 L 1226.481 922.845 L 1226.481 922.845 Q 1232.617 922.845 1237.326 925.342 L 1237.326 925.342 L 1237.326 925.342 Q 1242.036 927.839 1244.586 932.359 L 1244.586 932.359 L 1244.586 932.359 Q 1247.135 936.879 1247.135 942.82 L 1247.135 942.82 L 1247.135 964.516 L 1247.135 964.516 Q 1247.135 970.456 1244.586 974.976 L 1244.586 974.976 L 1244.586 974.976 Q 1242.036 979.496 1237.326 981.993 L 1237.326 981.993 L 1237.326 981.993 Q 1232.617 984.49 1226.481 984.49 L 1226.481 984.49 L 1226.481 984.49 Z  M 1226.481 979.238 L 1226.481 979.238 Q 1233.049 979.238 1237.024 975.278 L 1237.024 975.278 L 1237.024 975.278 Q 1240.999 971.317 1240.999 964.774 L 1240.999 964.774 L 1240.999 942.733 L 1240.999 942.733 Q 1240.999 936.19 1237.024 932.187 L 1237.024 932.187 L 1237.024 932.187 Q 1233.049 928.183 1226.481 928.183 L 1226.481 928.183 L 1226.481 928.183 Q 1219.999 928.183 1216.024 932.187 L 1216.024 932.187 L 1216.024 932.187 Q 1212.049 936.19 1212.049 942.733 L 1212.049 942.733 L 1212.049 964.774 L 1212.049 964.774 Q 1212.049 971.317 1216.024 975.278 L 1216.024 975.278 L 1216.024 975.278 Q 1219.999 979.238 1226.481 979.238 L 1226.481 979.238 L 1226.481 979.238 Z  M 667 983.801 L 667 983.801 Q 666.222 983.801 665.963 983.112 L 665.963 983.112 L 662.506 972.264 L 662.506 972.264 Q 662.419 972.006 662.16 972.006 L 662.16 972.006 L 636.321 972.006 L 636.321 972.006 Q 636.061 972.006 635.975 972.264 L 635.975 972.264 L 632.518 983.112 L 632.518 983.112 Q 632.259 983.801 631.481 983.801 L 631.481 983.801 L 626.814 983.801 L 626.814 983.801 Q 625.864 983.801 626.123 982.854 L 626.123 982.854 L 645.222 924.223 L 645.222 924.223 Q 645.481 923.534 646.259 923.534 L 646.259 923.534 L 652.135 923.534 L 652.135 923.534 Q 652.913 923.534 653.172 924.223 L 653.172 924.223 L 672.358 982.854 L 672.444 983.199 L 672.444 983.199 Q 672.444 983.801 671.666 983.801 L 671.666 983.801 L 667 983.801 L 667 983.801 Z  M 637.703 966.582 L 637.703 966.582 Q 637.617 966.754 637.747 966.883 L 637.747 966.883 L 637.747 966.883 Q 637.876 967.013 638.049 967.013 L 638.049 967.013 L 660.345 967.013 L 660.345 967.013 Q 660.518 967.013 660.648 966.883 L 660.648 966.883 L 660.648 966.883 Q 660.777 966.754 660.691 966.582 L 660.691 966.582 L 649.456 931.455 L 649.456 931.455 Q 649.37 931.283 649.197 931.283 L 649.197 931.283 L 649.197 931.283 Q 649.024 931.283 648.938 931.455 L 648.938 931.455 L 637.703 966.582 L 637.703 966.582 Z  M 700.963 984.576 L 700.963 984.576 Q 694.913 984.576 690.333 982.208 L 690.333 982.208 L 690.333 982.208 Q 685.753 979.841 683.203 975.493 L 683.203 975.493 L 683.203 975.493 Q 680.654 971.145 680.654 965.463 L 680.654 965.463 L 680.654 941.786 L 680.654 941.786 Q 680.654 936.19 683.203 931.885 L 683.203 931.885 L 683.203 931.885 Q 685.753 927.581 690.333 925.213 L 690.333 925.213 L 690.333 925.213 Q 694.913 922.845 700.963 922.845 L 700.963 922.845 L 700.963 922.845 Q 707.012 922.845 711.592 925.17 L 711.592 925.17 L 711.592 925.17 Q 716.172 927.494 718.722 931.713 L 718.722 931.713 L 718.722 931.713 Q 721.271 935.932 721.271 941.442 L 721.271 941.442 L 721.271 941.442 Q 721.271 941.872 721.012 942.131 L 721.012 942.131 L 721.012 942.131 Q 720.753 942.389 720.407 942.389 L 720.407 942.389 L 716 942.647 L 716 942.647 Q 715.135 942.647 715.135 941.872 L 715.135 941.872 L 715.135 941.614 L 715.135 941.614 Q 715.135 935.501 711.246 931.842 L 711.246 931.842 L 711.246 931.842 Q 707.358 928.183 700.963 928.183 L 700.963 928.183 L 700.963 928.183 Q 694.567 928.183 690.679 931.885 L 690.679 931.885 L 690.679 931.885 Q 686.79 935.587 686.79 941.614 L 686.79 941.614 L 686.79 965.721 L 686.79 965.721 Q 686.79 971.748 690.679 975.45 L 690.679 975.45 L 690.679 975.45 Q 694.567 979.152 700.963 979.152 L 700.963 979.152 L 700.963 979.152 Q 707.358 979.152 711.246 975.493 L 711.246 975.493 L 711.246 975.493 Q 715.135 971.834 715.135 965.721 L 715.135 965.721 L 715.135 965.549 L 715.135 965.549 Q 715.135 964.774 716 964.774 L 716 964.774 L 720.407 965.032 L 720.407 965.032 Q 721.271 965.032 721.271 965.807 L 721.271 965.807 L 721.271 965.807 Q 721.271 971.403 718.722 975.665 L 718.722 975.665 L 718.722 975.665 Q 716.172 979.927 711.592 982.252 L 711.592 982.252 L 711.592 982.252 Q 707.012 984.576 700.963 984.576 L 700.963 984.576 L 700.963 984.576 Z  M 753.419 984.576 L 753.419 984.576 Q 747.37 984.576 742.79 982.208 L 742.79 982.208 L 742.79 982.208 Q 738.209 979.841 735.66 975.493 L 735.66 975.493 L 735.66 975.493 Q 733.111 971.145 733.111 965.463 L 733.111 965.463 L 733.111 941.786 L 733.111 941.786 Q 733.111 936.19 735.66 931.885 L 735.66 931.885 L 735.66 931.885 Q 738.209 927.581 742.79 925.213 L 742.79 925.213 L 742.79 925.213 Q 747.37 922.845 753.419 922.845 L 753.419 922.845 L 753.419 922.845 Q 759.469 922.845 764.049 925.17 L 764.049 925.17 L 764.049 925.17 Q 768.629 927.494 771.179 931.713 L 771.179 931.713 L 771.179 931.713 Q 773.728 935.932 773.728 941.442 L 773.728 941.442 L 773.728 941.442 Q 773.728 941.872 773.469 942.131 L 773.469 942.131 L 773.469 942.131 Q 773.209 942.389 772.864 942.389 L 772.864 942.389 L 768.456 942.647 L 768.456 942.647 Q 767.592 942.647 767.592 941.872 L 767.592 941.872 L 767.592 941.614 L 767.592 941.614 Q 767.592 935.501 763.703 931.842 L 763.703 931.842 L 763.703 931.842 Q 759.814 928.183 753.419 928.183 L 753.419 928.183 L 753.419 928.183 Q 747.024 928.183 743.135 931.885 L 743.135 931.885 L 743.135 931.885 Q 739.246 935.587 739.246 941.614 L 739.246 941.614 L 739.246 965.721 L 739.246 965.721 Q 739.246 971.748 743.135 975.45 L 743.135 975.45 L 743.135 975.45 Q 747.024 979.152 753.419 979.152 L 753.419 979.152 L 753.419 979.152 Q 759.814 979.152 763.703 975.493 L 763.703 975.493 L 763.703 975.493 Q 767.592 971.834 767.592 965.721 L 767.592 965.721 L 767.592 965.549 L 767.592 965.549 Q 767.592 964.774 768.456 964.774 L 768.456 964.774 L 772.864 965.032 L 772.864 965.032 Q 773.728 965.032 773.728 965.807 L 773.728 965.807 L 773.728 965.807 Q 773.728 971.403 771.179 975.665 L 771.179 975.665 L 771.179 975.665 Q 768.629 979.927 764.049 982.252 L 764.049 982.252 L 764.049 982.252 Q 759.469 984.576 753.419 984.576 L 753.419 984.576 L 753.419 984.576 Z  M 826.617 928.011 L 826.617 928.011 Q 826.617 928.872 825.753 928.872 L 825.753 928.872 L 793.95 928.872 L 793.95 928.872 Q 793.604 928.872 793.604 929.216 L 793.604 929.216 L 793.604 950.482 L 793.604 950.482 Q 793.604 950.826 793.95 950.826 L 793.95 950.826 L 816.246 950.826 L 816.246 950.826 Q 817.111 950.826 817.111 951.687 L 817.111 951.687 L 817.111 955.303 L 817.111 955.303 Q 817.111 956.164 816.246 956.164 L 816.246 956.164 L 793.95 956.164 L 793.95 956.164 Q 793.604 956.164 793.604 956.509 L 793.604 956.509 L 793.604 978.119 L 793.604 978.119 Q 793.604 978.463 793.95 978.463 L 793.95 978.463 L 825.753 978.463 L 825.753 978.463 Q 826.617 978.463 826.617 979.324 L 826.617 979.324 L 826.617 982.94 L 826.617 982.94 Q 826.617 983.801 825.753 983.801 L 825.753 983.801 L 788.333 983.801 L 788.333 983.801 Q 787.469 983.801 787.469 982.94 L 787.469 982.94 L 787.469 924.395 L 787.469 924.395 Q 787.469 923.534 788.333 923.534 L 788.333 923.534 L 825.753 923.534 L 825.753 923.534 Q 826.617 923.534 826.617 924.395 L 826.617 924.395 L 826.617 928.011 L 826.617 928.011 Z  M 840.617 983.801 L 840.617 983.801 Q 839.753 983.801 839.753 982.94 L 839.753 982.94 L 839.753 924.395 L 839.753 924.395 Q 839.753 923.534 840.617 923.534 L 840.617 923.534 L 845.024 923.534 L 845.024 923.534 Q 845.888 923.534 845.888 924.395 L 845.888 924.395 L 845.888 978.119 L 845.888 978.119 Q 845.888 978.463 846.234 978.463 L 846.234 978.463 L 876.74 978.463 L 876.74 978.463 Q 877.604 978.463 877.604 979.324 L 877.604 979.324 L 877.604 982.94 L 877.604 982.94 Q 877.604 983.801 876.74 983.801 L 876.74 983.801 L 840.617 983.801 L 840.617 983.801 Z  M 927.987 928.011 L 927.987 928.011 Q 927.987 928.872 927.123 928.872 L 927.123 928.872 L 895.32 928.872 L 895.32 928.872 Q 894.975 928.872 894.975 929.216 L 894.975 929.216 L 894.975 950.482 L 894.975 950.482 Q 894.975 950.826 895.32 950.826 L 895.32 950.826 L 917.617 950.826 L 917.617 950.826 Q 918.481 950.826 918.481 951.687 L 918.481 951.687 L 918.481 955.303 L 918.481 955.303 Q 918.481 956.164 917.617 956.164 L 917.617 956.164 L 895.32 956.164 L 895.32 956.164 Q 894.975 956.164 894.975 956.509 L 894.975 956.509 L 894.975 978.119 L 894.975 978.119 Q 894.975 978.463 895.32 978.463 L 895.32 978.463 L 927.123 978.463 L 927.123 978.463 Q 927.987 978.463 927.987 979.324 L 927.987 979.324 L 927.987 982.94 L 927.987 982.94 Q 927.987 983.801 927.123 983.801 L 927.123 983.801 L 889.703 983.801 L 889.703 983.801 Q 888.839 983.801 888.839 982.94 L 888.839 982.94 L 888.839 924.395 L 888.839 924.395 Q 888.839 923.534 889.703 923.534 L 889.703 923.534 L 927.123 923.534 L 927.123 923.534 Q 927.987 923.534 927.987 924.395 L 927.987 924.395 L 927.987 928.011 L 927.987 928.011 Z  M 976.382 983.801 L 976.382 983.801 Q 975.604 983.801 975.345 983.199 L 975.345 983.199 L 962.641 956.509 L 962.641 956.509 Q 962.555 956.251 962.296 956.251 L 962.296 956.251 L 947.604 956.251 L 947.604 956.251 Q 947.259 956.251 947.259 956.595 L 947.259 956.595 L 947.259 982.94 L 947.259 982.94 Q 947.259 983.801 946.394 983.801 L 946.394 983.801 L 941.987 983.801 L 941.987 983.801 Q 941.123 983.801 941.123 982.94 L 941.123 982.94 L 941.123 924.395 L 941.123 924.395 Q 941.123 923.534 941.987 923.534 L 941.987 923.534 L 964.37 923.534 L 964.37 923.534 Q 971.802 923.534 976.382 928.14 L 976.382 928.14 L 976.382 928.14 Q 980.962 932.746 980.962 940.151 L 980.962 940.151 L 980.962 940.151 Q 980.962 946.177 977.678 950.396 L 977.678 950.396 L 977.678 950.396 Q 974.394 954.615 968.777 955.82 L 968.777 955.82 L 968.777 955.82 Q 968.432 955.992 968.604 956.251 L 968.604 956.251 L 981.567 982.768 L 981.567 982.768 Q 981.654 982.94 981.654 983.199 L 981.654 983.199 L 981.654 983.199 Q 981.654 983.801 980.962 983.801 L 980.962 983.801 L 976.382 983.801 L 976.382 983.801 Z  M 947.604 928.872 L 947.604 928.872 Q 947.259 928.872 947.259 929.216 L 947.259 929.216 L 947.259 950.999 L 947.259 950.999 Q 947.259 951.343 947.604 951.343 L 947.604 951.343 L 963.678 951.343 L 963.678 951.343 Q 968.691 951.343 971.802 948.244 L 971.802 948.244 L 971.802 948.244 Q 974.913 945.144 974.913 940.151 L 974.913 940.151 L 974.913 940.151 Q 974.913 935.157 971.802 932.014 L 971.802 932.014 L 971.802 932.014 Q 968.691 928.872 963.678 928.872 L 963.678 928.872 L 947.604 928.872 L 947.604 928.872 Z  M 1033.073 983.801 L 1033.073 983.801 Q 1032.296 983.801 1032.036 983.112 L 1032.036 983.112 L 1028.58 972.264 L 1028.58 972.264 Q 1028.493 972.006 1028.234 972.006 L 1028.234 972.006 L 1002.394 972.006 L 1002.394 972.006 Q 1002.135 972.006 1002.049 972.264 L 1002.049 972.264 L 998.592 983.112 L 998.592 983.112 Q 998.333 983.801 997.555 983.801 L 997.555 983.801 L 992.888 983.801 L 992.888 983.801 Q 991.938 983.801 992.197 982.854 L 992.197 982.854 L 1011.296 924.223 L 1011.296 924.223 Q 1011.555 923.534 1012.333 923.534 L 1012.333 923.534 L 1018.209 923.534 L 1018.209 923.534 Q 1018.987 923.534 1019.246 924.223 L 1019.246 924.223 L 1038.431 982.854 L 1038.518 983.199 L 1038.518 983.199 Q 1038.518 983.801 1037.74 983.801 L 1037.74 983.801 L 1033.073 983.801 L 1033.073 983.801 Z  M 1003.777 966.582 L 1003.777 966.582 Q 1003.691 966.754 1003.82 966.883 L 1003.82 966.883 L 1003.82 966.883 Q 1003.95 967.013 1004.123 967.013 L 1004.123 967.013 L 1026.419 967.013 L 1026.419 967.013 Q 1026.592 967.013 1026.722 966.883 L 1026.722 966.883 L 1026.722 966.883 Q 1026.851 966.754 1026.765 966.582 L 1026.765 966.582 L 1015.53 931.455 L 1015.53 931.455 Q 1015.444 931.283 1015.271 931.283 L 1015.271 931.283 L 1015.271 931.283 Q 1015.098 931.283 1015.012 931.455 L 1015.012 931.455 L 1003.777 966.582 L 1003.777 966.582 Z  M 1080.518 923.534 L 1080.518 923.534 Q 1081.382 923.534 1081.382 924.395 L 1081.382 924.395 L 1081.382 928.097 L 1081.382 928.097 Q 1081.382 928.958 1080.518 928.958 L 1080.518 928.958 L 1063.58 928.958 L 1063.58 928.958 Q 1063.234 928.958 1063.234 929.302 L 1063.234 929.302 L 1063.234 982.94 L 1063.234 982.94 Q 1063.234 983.801 1062.37 983.801 L 1062.37 983.801 L 1057.962 983.801 L 1057.962 983.801 Q 1057.098 983.801 1057.098 982.94 L 1057.098 982.94 L 1057.098 929.302 L 1057.098 929.302 Q 1057.098 928.958 1056.752 928.958 L 1056.752 928.958 L 1040.506 928.958 L 1040.506 928.958 Q 1039.641 928.958 1039.641 928.097 L 1039.641 928.097 L 1039.641 924.395 L 1039.641 924.395 Q 1039.641 923.534 1040.506 923.534 L 1040.506 923.534 L 1080.518 923.534 L 1080.518 923.534 Z  M 1132.37 928.011 L 1132.37 928.011 Q 1132.37 928.872 1131.505 928.872 L 1131.505 928.872 L 1099.703 928.872 L 1099.703 928.872 Q 1099.357 928.872 1099.357 929.216 L 1099.357 929.216 L 1099.357 950.482 L 1099.357 950.482 Q 1099.357 950.826 1099.703 950.826 L 1099.703 950.826 L 1121.999 950.826 L 1121.999 950.826 Q 1122.864 950.826 1122.864 951.687 L 1122.864 951.687 L 1122.864 955.303 L 1122.864 955.303 Q 1122.864 956.164 1121.999 956.164 L 1121.999 956.164 L 1099.703 956.164 L 1099.703 956.164 Q 1099.357 956.164 1099.357 956.509 L 1099.357 956.509 L 1099.357 978.119 L 1099.357 978.119 Q 1099.357 978.463 1099.703 978.463 L 1099.703 978.463 L 1131.505 978.463 L 1131.505 978.463 Q 1132.37 978.463 1132.37 979.324 L 1132.37 979.324 L 1132.37 982.94 L 1132.37 982.94 Q 1132.37 983.801 1131.505 983.801 L 1131.505 983.801 L 1094.086 983.801 L 1094.086 983.801 Q 1093.222 983.801 1093.222 982.94 L 1093.222 982.94 L 1093.222 924.395 L 1093.222 924.395 Q 1093.222 923.534 1094.086 923.534 L 1094.086 923.534 L 1131.505 923.534 L 1131.505 923.534 Q 1132.37 923.534 1132.37 924.395 L 1132.37 924.395 L 1132.37 928.011 L 1132.37 928.011 Z " fill="rgb(17,132,176)"/></g></svg>